<svg width="41" height="40" viewBox="0 0 41 40" fill="none" xmlns="http://www.w3.org/2000/svg">
<path d="M38.0549 33.9917L32.4069 28.2941L35.1722 25.6267L36.6469 24.2044L35.6857 23.2345L34.211 24.6568L29.5675 19.9724L40.5527 8.89052L38.3657 2.00261L31.3357 0L20.5527 10.8785L9.76965 0.000681971L2.73978 2.0034L0.552734 8.89131L11.538 19.9732L6.89449 24.6576L5.41975 23.2353L4.45856 24.2052L5.93319 25.6273L8.69842 28.2948L3.05042 33.9924L1.5145 32.5105L0.55331 33.4804L2.08923 34.9623L5.77568 38.5181L7.3116 40L8.27279 39.0301L6.73687 37.5482L12.3849 31.8506L15.1501 34.518L16.6248 35.9402L17.586 34.9704L16.1113 33.5481L20.5527 29.0679L24.9941 33.5481L23.5193 34.9704L24.4805 35.9402L25.9553 34.518L28.7205 31.8506L34.3685 37.5482L32.8326 39.0301L33.7938 40L35.3297 38.5181L39.0161 34.9623L40.552 33.4804L39.5909 32.5105L38.0549 33.9917ZM2.11066 8.52237L3.83152 3.10411L9.3613 1.52864L19.5909 11.8482L12.4992 19.0027L2.11066 8.52237ZM5.75378 36.5994L4.03293 34.9398L9.68093 29.2421L11.4011 30.9017L5.75378 36.5994ZM19.5908 28.0966L15.1281 32.5986L13.3461 30.88L9.65961 27.3235L7.87757 25.605L12.4991 20.9423L13.4609 19.9724L20.5527 12.818L21.5146 11.8481L31.7442 1.52784L37.2739 3.10331L38.9948 8.52146L28.6057 19.0024L27.6438 19.9723L20.5528 27.1268L19.5908 28.0966ZM27.7586 30.8801L25.9766 32.5987L21.5139 28.0968L28.6056 20.9431L33.2271 25.6057L31.4451 27.3243L27.7586 30.8801ZM35.3516 36.5994L29.7036 30.9017L31.4237 29.2421L37.0717 34.9398L35.3516 36.5994Z" fill="black"/>
</svg>
